<?xml version="1.0" standalone="no"?>
<!DOCTYPE svg PUBLIC "-//W3C//DTD SVG 20010904//EN"
 "http://www.w3.org/TR/2001/REC-SVG-20010904/DTD/svg10.dtd">
<svg version="1.0" xmlns="http://www.w3.org/2000/svg"
 width="320.000000pt" height="320.000000pt" viewBox="0 0 320.000000 320.000000"
 preserveAspectRatio="xMidYMid meet">
<metadata>
Created by potrace 1.11, written by Peter Selinger 2001-2013
</metadata>
<g transform="translate(0.000000,320.000000) scale(0.100000,-0.100000)"
fill="#000000" stroke="none">
<path d="M1469 2645 c-252 -50 -464 -255 -519 -502 -6 -25 -13 -69 -16 -99
l-6 -54 44 0 45 0 7 66 c29 286 283 513 573 514 96 0 163 -15 251 -57 160 -75
274 -216 320 -393 12 -45 9 -220 -4 -270 -49 -189 -207 -357 -388 -412 -71
-21 -87 -25 -143 -27 -32 -1 -33 -2 -33 -46 l0 -45 58 6 c200 18 388 129 495
292 79 121 108 212 112 354 9 280 -150 526 -412 636 -40 17 -73 29 -73 27 0
-3 -12 0 -27 6 -43 16 -211 19 -284 4z"/>
<path d="M1482 2474 c-185 -48 -338 -207 -370 -384 -14 -77 -5 -204 18 -265
10 -25 10 -25 46 -10 20 8 38 15 39 15 2 0 -4 23 -12 51 -23 77 -14 198 19
271 48 104 130 184 225 221 164 64 360 15 468 -117 171 -209 104 -517 -139
-636 -94 -47 -226 -53 -317 -16 -11 5 -20 -4 -33 -30 -9 -21 -13 -41 -8 -46 4
-4 40 -15 78 -23 169 -35 338 16 456 137 101 103 148 224 143 368 -11 312
-314 541 -613 464z"/>
<path d="M1510 2307 c-82 -23 -166 -91 -203 -164 -37 -72 -44 -183 -16 -263
80 -230 385 -292 550 -113 61 66 82 122 83 223 1 74 -3 92 -27 140 -58 113
-155 178 -276 186 -37 2 -86 -2 -111 -9z m179 -93 c91 -38 153 -129 153 -223
-2 -174 -184 -292 -341 -221 -209 95 -178 398 46 455 53 14 90 11 142 -11z"/>
<path d="M1528 2130 c-57 -30 -83 -75 -83 -140 1 -68 27 -111 88 -141 111 -57
241 40 223 166 -6 35 -17 56 -45 84 -54 54 -118 65 -183 31z"/>
<path d="M632 1060 c-4 -3 -7 -79 -7 -170 l0 -165 123 -3 122 -3 0 34 0 34
-70 0 c-38 1 -77 2 -85 2 -11 1 -15 12 -15 39 l0 37 83 -1 84 -2 -3 27 c-1 14
-2 29 -3 34 -1 4 -37 7 -81 7 l-80 0 0 36 0 35 53 -1 c115 -4 117 -3 117 30 0
17 -3 31 -7 31 -26 4 -226 3 -231 -1z"/>
<path d="M972 1054 c-62 -32 -78 -108 -32 -154 10 -10 51 -28 90 -40 76 -23
96 -43 64 -67 -23 -18 -95 -11 -127 12 -29 21 -34 19 -51 -13 -15 -28 -14 -29
23 -50 51 -29 130 -34 180 -11 45 20 63 47 63 96 0 49 -32 78 -117 105 -56 18
-70 27 -70 43 0 16 8 21 38 23 20 2 52 -4 69 -12 29 -15 33 -15 50 0 10 10 18
23 18 29 0 43 -139 69 -198 39z"/>
<path d="M1238 1061 c0 -3 -2 -81 -3 -173 l-2 -168 37 0 37 0 -1 60 c-1 65 -4
63 68 61 51 -1 103 25 121 60 18 33 19 56 4 97 -17 51 -48 64 -160 66 -54 2
-100 0 -101 -3z m174 -72 c20 -11 24 -49 6 -67 -7 -7 -34 -12 -60 -12 -50 0
-50 1 -50 55 0 8 0 19 1 24 1 12 80 12 103 0z"/>
<path d="M1649 1060 c-110 -33 -156 -181 -85 -274 110 -145 345 -52 322 127
-15 115 -123 182 -237 147z m136 -90 c22 -25 31 -93 16 -129 -18 -42 -70 -67
-117 -55 -84 21 -106 134 -38 196 36 32 105 26 139 -12z"/>
<path d="M1933 1061 c-5 -3 -8 -80 -8 -171 l1 -165 37 -3 37 -3 0 60 c0 33 3
62 8 64 19 12 54 -17 77 -63 28 -56 38 -63 84 -58 l32 3 -35 58 -36 59 35 33
c38 35 46 80 23 129 -20 46 -53 58 -155 61 -51 1 -96 -1 -100 -4z m178 -80
c13 -11 17 -23 13 -38 -8 -30 -44 -40 -114 -34 -5 1 -10 21 -10 46 l0 45 46
-2 c25 -1 54 -8 65 -17z"/>
<path d="M2351 1056 c-5 -6 -34 -78 -66 -161 -32 -82 -60 -156 -62 -162 -4 -9
8 -13 40 -13 42 0 46 2 52 30 7 30 7 30 80 30 71 0 73 -1 85 -30 11 -26 18
-30 51 -30 22 0 39 3 39 8 0 8 -121 325 -126 331 -9 10 -85 7 -93 -3z m74
-141 c27 -72 28 -71 -26 -71 -27 0 -49 3 -49 6 0 18 45 129 50 123 4 -5 15
-30 25 -58z"/>
<path d="M858 588 c-3 -7 -4 -41 -2 -75 1 -35 -1 -63 -5 -63 -7 0 -67 77 -92
118 -8 12 -22 22 -31 22 -16 0 -18 -11 -18 -99 0 -79 3 -100 15 -105 13 -4 15
8 15 76 l0 82 55 -75 c62 -81 84 -101 86 -72 6 86 2 186 -7 194 -8 6 -13 5
-16 -3z"/>
<path d="M932 490 c3 -122 20 -138 28 -25 l5 75 30 -75 c16 -41 33 -75 37 -75
8 0 25 34 48 98 19 50 30 38 30 -32 0 -36 5 -68 10 -71 12 -7 12 -7 14 112 2
81 0 92 -16 96 -19 5 -23 -1 -63 -107 l-19 -49 -33 73 c-18 40 -33 76 -33 81
0 4 -9 7 -20 6 -20 -1 -20 -7 -18 -107z"/>
<path d="M1230 583 c-84 -42 -69 -175 22 -198 98 -25 170 100 101 174 -36 38
-78 46 -123 24z m98 -33 c29 -27 30 -92 2 -120 -11 -11 -23 -20 -27 -21 -5 0
-16 -2 -26 -4 -10 -2 -30 7 -45 20 -33 28 -37 92 -8 124 25 27 75 27 104 1z"/>
<path d="M1426 592 c-3 -3 -6 -50 -6 -104 0 -95 1 -98 23 -99 12 -1 36 -3 52
-4 61 -4 98 38 70 81 -12 18 -13 29 -5 43 14 27 13 56 -3 70 -15 12 -122 23
-131 13z m109 -33 c4 -5 4 -21 1 -33 -5 -20 -11 -23 -43 -21 -21 1 -41 3 -44
4 -3 0 -5 11 -3 24 1 12 3 25 3 30 1 11 79 8 86 -4z m6 -95 c21 -25 -1 -49
-50 -52 -41 -3 -43 -1 -43 38 0 11 0 22 1 25 3 13 80 4 92 -11z"/>
<path d="M1622 583 c-13 -27 -9 -180 6 -195 14 -14 14 -14 13 116 -1 96 -4
108 -19 79z"/>
<path d="M1849 598 c-1 -2 -3 -49 -4 -105 -2 -78 1 -103 11 -107 11 -4 14 15
14 99 0 58 -4 107 -10 110 -5 3 -11 5 -11 3z"/>
<path d="M1980 596 c0 -1 -18 -46 -40 -101 -27 -64 -37 -102 -31 -108 7 -7 14
-1 22 16 11 24 18 27 65 27 43 0 54 -3 59 -19 5 -18 35 -38 35 -23 0 3 -17 50
-37 104 -25 64 -43 98 -55 101 -10 3 -18 4 -18 3z m50 -126 c0 -11 -10 -16
-36 -16 -32 0 -35 2 -29 26 3 14 11 38 17 54 l12 30 18 -40 c10 -21 18 -46 18
-54z"/>
<path d="M2124 585 c-9 -22 1 -200 11 -200 6 0 11 19 13 43 4 57 28 56 70 -3
18 -26 37 -43 42 -40 6 4 0 21 -14 42 l-24 35 25 22 c22 19 25 28 19 59 -7 40
-17 45 -94 51 -27 2 -45 -1 -48 -9z m110 -37 c17 -27 -5 -52 -48 -56 l-36 -3
0 41 0 41 36 -3 c22 -2 42 -10 48 -20z"/>
<path d="M2454 592 c-11 -7 -84 -181 -84 -201 0 -17 29 -1 35 20 5 16 16 19
60 19 44 0 55 -3 60 -19 6 -19 35 -38 35 -23 0 15 -72 187 -84 199 -6 7 -16 9
-22 5z m41 -114 c6 -23 4 -24 -32 -23 -21 1 -37 5 -37 9 1 4 10 28 20 54 l18
47 12 -31 c7 -17 16 -42 19 -56z"/>
<path d="M639 573 c-3 -76 3 -179 11 -187 11 -11 12 -8 14 104 1 41 0 81 -2
88 -6 18 -22 15 -23 -5z"/>
<path d="M1686 498 c1 -51 2 -98 3 -104 1 -6 22 -10 54 -8 67 2 67 2 67 14 0
6 -22 10 -48 10 l-49 0 1 90 c1 74 -2 90 -14 90 -12 0 -15 -16 -14 -92z"/>
<path d="M2310 490 c0 -76 3 -100 13 -100 10 0 14 24 14 100 0 78 -3 100 -13
100 -11 0 -14 -22 -14 -100z"/>
</g>
</svg>
